<svg width="52" height="62" viewBox="0 0 52 62" fill="none" xmlns="http://www.w3.org/2000/svg">
<path d="M25 22C25 35.8071 38.8071 50 25 50C11.1929 50 0 38.8071 0 25C0 11.1929 11.1929 0 25 0C38.8071 0 25 8.19288 25 22Z" fill="#FFBA35"/>
<path d="M26.1365 34C26.1365 47.8071 12.3294 62 26.1365 62C39.9436 62 51.1365 50.8071 51.1365 37C51.1365 23.1929 39.9436 12 26.1365 12C12.3294 12 26.1365 20.1929 26.1365 34Z" fill="#FFBA35"/>
<path d="M22.09 18.554H17.554V16.244L22.93 14.984H25.618V34.43L29.524 35.69V38H18.184V35.69L22.09 34.43V18.554ZM36.0137 32.624C36.9097 32.624 37.6097 32.876 38.1137 33.38C38.6177 33.856 38.8697 34.556 38.8697 35.48C38.8697 36.404 38.6177 37.118 38.1137 37.622C37.6097 38.098 36.9097 38.336 36.0137 38.336C35.1177 38.336 34.4177 38.098 33.9137 37.622C33.4097 37.118 33.1577 36.404 33.1577 35.48C33.1577 34.556 33.4097 33.856 33.9137 33.38C34.4177 32.876 35.1177 32.624 36.0137 32.624Z" fill="#1F3086"/>
</svg>
