<svg width="53" height="62" viewBox="0 0 53 62" fill="none" xmlns="http://www.w3.org/2000/svg">
<path d="M25 22C25 35.8071 38.8071 50 25 50C11.1929 50 0 38.8071 0 25C0 11.1929 11.1929 0 25 0C38.8071 0 25 8.19288 25 22Z" fill="#FFBA35"/>
<path d="M26.1365 34C26.1365 47.8071 12.3294 62 26.1365 62C39.9436 62 51.1365 50.8071 51.1365 37C51.1365 23.1929 39.9436 12 26.1365 12C12.3294 12 26.1365 20.1929 26.1365 34Z" fill="#FFBA35"/>
<path d="M35.73 33.86V41H13.05V38.396C14.17 36.744 15.542 35.428 17.166 34.448C18.818 33.44 20.89 32.404 23.382 31.34C25.062 30.612 26.364 29.996 27.288 29.492C28.24 28.96 29.024 28.33 29.64 27.602C30.256 26.874 30.564 25.992 30.564 24.956C30.564 23.836 30.382 22.954 30.018 22.31C29.654 21.638 29.038 21.148 28.17 20.84C27.302 20.532 26.098 20.378 24.558 20.378C23.074 20.378 21.814 20.518 20.778 20.798C19.742 21.05 18.776 21.4 17.88 21.848L19.434 25.88C19.238 26.328 18.888 26.678 18.384 26.93C17.908 27.182 17.362 27.308 16.746 27.308C15.822 27.308 15.08 27.014 14.52 26.426C13.96 25.838 13.68 25.012 13.68 23.948C13.68 22.688 14.128 21.554 15.024 20.546C15.92 19.538 17.194 18.754 18.846 18.194C20.526 17.634 22.458 17.354 24.642 17.354C28.058 17.354 30.508 17.942 31.992 19.118C33.504 20.294 34.26 22.254 34.26 24.998C34.26 26.678 33.84 28.078 33 29.198C32.188 30.29 31.18 31.158 29.976 31.802C28.772 32.418 27.148 33.118 25.104 33.902C23.172 34.63 21.618 35.288 20.442 35.876C19.294 36.464 18.286 37.192 17.418 38.06H32.37L33.336 33.86H35.73ZM43.0058 35.624C43.9018 35.624 44.6018 35.876 45.1058 36.38C45.6098 36.856 45.8618 37.556 45.8618 38.48C45.8618 39.404 45.6098 40.118 45.1058 40.622C44.6018 41.098 43.9018 41.336 43.0058 41.336C42.1098 41.336 41.4098 41.098 40.9058 40.622C40.4018 40.118 40.1498 39.404 40.1498 38.48C40.1498 37.556 40.4018 36.856 40.9058 36.38C41.4098 35.876 42.1098 35.624 43.0058 35.624Z" fill="#1F3086"/>
</svg>
