<svg width="53" height="62" viewBox="0 0 53 62" fill="none" xmlns="http://www.w3.org/2000/svg">
<path d="M25 22C25 35.8071 38.8071 50 25 50C11.1929 50 0 38.8071 0 25C0 11.1929 11.1929 0 25 0C38.8071 0 25 8.19288 25 22Z" fill="#FFBA35"/>
<path d="M26.1365 34C26.1365 47.8071 12.3294 62 26.1365 62C39.9436 62 51.1365 50.8071 51.1365 37C51.1365 23.1929 39.9436 12 26.1365 12C12.3294 12 26.1365 20.1929 26.1365 34Z" fill="#FFBA35"/>
<path d="M24.642 30.122C27.89 30.262 30.298 30.99 31.866 32.306C33.434 33.594 34.218 35.568 34.218 38.228C34.218 44.108 30.634 47.048 23.466 47.048C20.33 47.048 17.838 46.544 15.99 45.536C14.17 44.556 13.26 43.198 13.26 41.462C13.26 40.398 13.568 39.614 14.184 39.11C14.8 38.606 15.808 38.354 17.208 38.354L19.392 43.646C20.652 43.898 22.066 44.024 23.634 44.024C26.098 44.024 27.862 43.59 28.926 42.722C29.99 41.882 30.522 40.426 30.522 38.354C30.522 37.038 30.27 36.002 29.766 35.246C29.262 34.49 28.366 33.93 27.078 33.566C25.818 33.174 24.026 32.978 21.702 32.978H20.148V30.458L29.22 20.924H17.124L16.116 25.124H13.68V17.984H33.798V20.504L24.642 30.122ZM40.873 35.624C41.769 35.624 42.469 35.876 42.973 36.38C43.477 36.856 43.729 37.556 43.729 38.48C43.729 39.404 43.477 40.118 42.973 40.622C42.469 41.098 41.769 41.336 40.873 41.336C39.977 41.336 39.277 41.098 38.773 40.622C38.269 40.118 38.017 39.404 38.017 38.48C38.017 37.556 38.269 36.856 38.773 36.38C39.277 35.876 39.977 35.624 40.873 35.624Z" fill="#1F3086"/>
</svg>
