<svg width="52" height="62" viewBox="0 0 52 62" fill="none" xmlns="http://www.w3.org/2000/svg">
<path d="M25 22C25 35.8071 38.8071 50 25 50C11.1929 50 0 38.8071 0 25C0 11.1929 11.1929 0 25 0C38.8071 0 25 8.19288 25 22Z" fill="#FFBA35"/>
<path d="M26.1365 34C26.1365 47.8071 12.3294 62 26.1365 62C39.9436 62 51.1365 50.8071 51.1365 37C51.1365 23.1929 39.9436 12 26.1365 12C12.3294 12 26.1365 20.1929 26.1365 34Z" fill="#FFBA35"/>
<path d="M36.276 35.96V38.9H32.076V46.712H28.548V38.9H12.42V35.96C15.388 33.244 17.81 30.444 19.686 27.56C21.562 24.648 22.864 21.456 23.592 17.984H27.456C26.896 21.484 25.58 24.816 23.508 27.98C21.436 31.144 19.07 33.804 16.41 35.96H28.548V28.274H32.076V35.96H36.276ZM42.7187 35.624C43.6147 35.624 44.3147 35.876 44.8187 36.38C45.3227 36.856 45.5747 37.556 45.5747 38.48C45.5747 39.404 45.3227 40.118 44.8187 40.622C44.3147 41.098 43.6147 41.336 42.7187 41.336C41.8227 41.336 41.1227 41.098 40.6187 40.622C40.1147 40.118 39.8627 39.404 39.8627 38.48C39.8627 37.556 40.1147 36.856 40.6187 36.38C41.1227 35.876 41.8227 35.624 42.7187 35.624Z" fill="#1F3086"/>
</svg>
