<svg width="83" height="81" viewBox="0 0 83 81" fill="none" xmlns="http://www.w3.org/2000/svg">
<circle cx="60.5" cy="58.5" r="22.5" fill="#FFBA35"/>
<g clip-path="url(#clip0_120_150)">
<path d="M63.3333 46.6667V60H56.6667V46.6667H63.3333ZM23.3333 46.6667V60H20C18.1667 60 16.6667 58.5 16.6667 56.6667V46.6667H23.3333ZM40 3.33334C23.4333 3.33334 10 16.7667 10 33.3333V56.6667C10 62.2 14.4667 66.6667 20 66.6667H30V40H16.6667V33.3333C16.6667 20.4333 27.1 10 40 10C52.9 10 63.3333 20.4333 63.3333 33.3333V40H50V66.6667H63.3333V70H40V76.6667H60C65.5333 76.6667 70 72.2 70 66.6667V33.3333C70 16.7667 56.5667 3.33334 40 3.33334Z" fill="#1F3086"/>
</g>
<defs>
<clipPath id="clip0_120_150">
<rect width="80" height="80" fill="white"/>
</clipPath>
</defs>
</svg>
