<svg width="19" height="19" viewBox="0 0 19 19" fill="none" xmlns="http://www.w3.org/2000/svg">
<path d="M15.1875 2.20833C15.125 3.13542 14.9687 4.04167 14.7187 4.90625L15.9687 6.15625C16.3958 4.90625 16.6667 3.58333 16.7604 2.20833H15.1875V2.20833ZM4.91667 14.7292C4.03125 14.9792 3.125 15.1354 2.20833 15.1979V16.75C3.58333 16.6562 4.90625 16.3854 6.16667 15.9687L4.91667 14.7292ZM14.1875 0.125H17.8333C18.4062 0.125 18.875 0.59375 18.875 1.16667C18.875 10.9479 10.9479 18.875 1.16667 18.875C0.59375 18.875 0.125 18.4062 0.125 17.8333V14.1979C0.125 13.625 0.59375 13.1562 1.16667 13.1562C2.45833 13.1562 3.71875 12.9479 4.88542 12.5625C4.98958 12.5208 5.10417 12.5104 5.20833 12.5104C5.47917 12.5104 5.73958 12.6146 5.94792 12.8125L8.23958 15.1042C11.1875 13.5937 13.6042 11.1875 15.1042 8.23958L12.8125 5.94792C12.5208 5.65625 12.4375 5.25 12.5521 4.88542C12.9375 3.71875 13.1458 2.46875 13.1458 1.16667C13.1458 0.59375 13.6146 0.125 14.1875 0.125Z" fill="white"/>
</svg>
