<svg width="25" height="25" viewBox="0 0 25 25" fill="none" xmlns="http://www.w3.org/2000/svg">
<g clip-path="url(#clip0_39_135)">
<path d="M18.1875 5.20833C18.125 6.13542 17.9688 7.04167 17.7188 7.90625L18.9687 9.15625C19.3958 7.90625 19.6667 6.58333 19.7604 5.20833H18.1875ZM7.91667 17.7292C7.03125 17.9792 6.125 18.1354 5.20833 18.1979V19.75C6.58333 19.6562 7.90625 19.3854 9.16667 18.9687L7.91667 17.7292ZM17.1875 3.125H20.8333C21.4062 3.125 21.875 3.59375 21.875 4.16667C21.875 13.9479 13.9479 21.875 4.16667 21.875C3.59375 21.875 3.125 21.4062 3.125 20.8333V17.1979C3.125 16.625 3.59375 16.1562 4.16667 16.1562C5.45833 16.1562 6.71875 15.9479 7.88542 15.5625C7.98958 15.5208 8.10417 15.5104 8.20833 15.5104C8.47917 15.5104 8.73958 15.6146 8.94792 15.8125L11.2396 18.1042C14.1875 16.5937 16.6042 14.1875 18.1042 11.2396L15.8125 8.94792C15.5208 8.65625 15.4375 8.25 15.5521 7.88542C15.9375 6.71875 16.1458 5.46875 16.1458 4.16667C16.1458 3.59375 16.6146 3.125 17.1875 3.125Z" fill="#3D3274"/>
</g>
<defs>
<clipPath id="clip0_39_135">
<rect width="25" height="25" fill="white"/>
</clipPath>
</defs>
</svg>
