<svg width="80" height="88" viewBox="0 0 80 88" fill="none" xmlns="http://www.w3.org/2000/svg">
<circle cx="57.5" cy="65.5" r="22.5" fill="#FFBA35"/>
<g clip-path="url(#clip0_120_148)">
<path d="M60 20H53.3333C53.3333 12.6333 47.3666 6.66666 40 6.66666C32.6333 6.66666 26.6666 12.6333 26.6666 20H20C16.3333 20 13.3333 23 13.3333 26.6667V66.6667C13.3333 70.3333 16.3333 73.3333 20 73.3333H60C63.6666 73.3333 66.6666 70.3333 66.6666 66.6667V26.6667C66.6666 23 63.6666 20 60 20ZM40 13.3333C43.6666 13.3333 46.6666 16.3333 46.6666 20H33.3333C33.3333 16.3333 36.3333 13.3333 40 13.3333ZM60 66.6667H20V26.6667H26.6666V33.3333C26.6666 35.1667 28.1666 36.6667 30 36.6667C31.8333 36.6667 33.3333 35.1667 33.3333 33.3333V26.6667H46.6666V33.3333C46.6666 35.1667 48.1666 36.6667 50 36.6667C51.8333 36.6667 53.3333 35.1667 53.3333 33.3333V26.6667H60V66.6667Z" fill="#1F3086"/>
</g>
<defs>
<clipPath id="clip0_120_148">
<rect width="80" height="80" fill="white"/>
</clipPath>
</defs>
</svg>
